<svg width="200" height="80.06655775763146" viewBox="0 0 200 80.06655775763146" class="css-1j8o68f"><defs id="SvgjsDefs2663"></defs><g id="SvgjsG2664" featurekey="nameFeature-0" transform="matrix(1.139471257586905,0,0,1.139471257586905,-5.013673642050829,-10.984502227659702)" fill="#ffffff"><path d="M8.68 40 l-4.28 0 l0 -29.84 l4.28 0 l0 29.84 z M38.4 40 l-20.92 0 l0 -29.84 l4.36 0 l0 25.48 l16.56 0 l0 4.36 z M47.88 40 l-4.28 0 l0 -29.84 l4.28 0 l0 29.84 z M66.56 23.28 q2.68 -2.8 4.84 -6.24 t3.44 -6.88 l5 0 q-2.04 4.76 -4.96 9.12 q-2.64 3.96 -6.16 7.8 l0 12.92 l-4.32 0 l0 -12.92 q-3.52 -3.84 -6.16 -7.8 q-2.92 -4.36 -4.96 -9.12 l5 0 q1.28 3.44 3.44 6.88 t4.84 6.24 z M94.56 13.32 l-1.64 -3.68 l4.8 0 l14.36 30.36 l-4.88 0 l-1.96 -4.36 l-9.08 0 q-2.56 0 -4.6 0.48 q-1.8 0.44 -3 1.16 q-1.08 0.64 -1.44 1.32 l-0.76 1.4 l-4.72 0 z M97.76 31.240000000000002 l5.52 0 l-6.52 -12.6 l-6.6 14.28 q0.88 -0.76 2.68 -1.2 q2.04 -0.48 4.92 -0.48 z M118.56 14.36 l-3.48 -4.2 l5.64 0 l19.16 22.8 l0 -22.8 l4.4 0 l0 29.84 l-4.32 0 l-17.12 -20.52 l0 20.52 l-4.28 0 l0 -25.64 z M162.4 13.32 l-1.64 -3.68 l4.8 0 l14.36 30.36 l-4.88 0 l-1.96 -4.36 l-9.08 0 q-2.56 0 -4.6 0.48 q-1.8 0.44 -3 1.16 q-1.08 0.64 -1.44 1.32 l-0.76 1.4 l-4.72 0 z M165.60000000000002 31.240000000000002 l5.52 0 l-6.52 -12.6 l-6.6 14.28 q0.88 -0.76 2.68 -1.2 q2.04 -0.48 4.92 -0.48 z"></path></g><g id="SvgjsG2665" featurekey="nameFeature-1" transform="matrix(1.1296881515301795,0,0,1.1296881515301795,-4.970627974468248,34.51649102339549)" fill="#ffffff"><path d="M8.68 40 l-4.28 0 l0 -29.84 l4.28 0 l0 29.84 z M44.28 10.16 l-12.52 29.84 l-5.16 0 l-12.32 -29.84 l4.72 0 l10.2 24.96 l10.28 -24.96 l4.8 0 z M59.199999999999996 13.32 l-1.64 -3.68 l4.8 0 l14.36 30.36 l-4.88 0 l-1.96 -4.36 l-9.08 0 q-2.56 0 -4.6 0.48 q-1.8 0.44 -3 1.16 q-1.08 0.64 -1.44 1.32 l-0.76 1.4 l-4.72 0 z M62.4 31.240000000000002 l5.52 0 l-6.52 -12.6 l-6.6 14.28 q0.88 -0.76 2.68 -1.2 q2.04 -0.48 4.92 -0.48 z M83.19999999999999 14.36 l-3.48 -4.2 l5.64 0 l19.16 22.8 l0 -22.8 l4.4 0 l0 29.84 l-4.32 0 l-17.12 -20.52 l0 20.52 l-4.28 0 l0 -25.64 z M143.51999999999998 24.880000000000003 q0 -3.2 -1.64 -5.8 q-1.56 -2.52 -4.26 -3.96 t-5.86 -1.44 q-3.28 0 -5.98 1.48 t-4.22 4.04 q-1.56 2.68 -1.56 5.96 q0 3.12 1.68 5.76 q1.6 2.48 4.3 3.94 t5.84 1.46 t5.84 -1.52 t4.26 -4.08 q1.6 -2.68 1.6 -5.84 z M147.84 25.119999999999997 q0 4.32 -2.24 7.96 q-2.16 3.48 -5.86 5.54 t-7.98 2.06 q-4.44 0 -8.16 -2.16 q-3.64 -2.08 -5.72 -5.72 q-2.16 -3.72 -2.16 -8.16 q0 -4.28 2.28 -7.88 q2.16 -3.44 5.86 -5.46 t7.94 -2.02 q4.36 0 8.08 2.12 q3.64 2.08 5.76 5.64 q2.2 3.72 2.2 8.08 z M181.44 10.16 l-12.52 29.84 l-5.16 0 l-12.32 -29.84 l4.72 0 l10.2 24.96 l10.28 -24.96 l4.8 0 z"></path></g></svg>