<svg width="160" height="94.70415172457484" viewBox="0 0 200 134.70415172457484" class="css-1j8o68f"><defs id="SvgjsDefs3323"></defs><g id="SvgjsG3324" featurekey="nameFeature-0" transform="matrix(2.0955573646677825,0,0,2.0955573646677825,-2.5146684379054918,-23.05112901286637)" fill="#ffffff"><path d="M1.2 11 l5.8 0 l0 29 l-5.8 0 l0 -29 z M9.399999999999999 11 l5.96 0 l0 23.6 l5.84 0 l-1 5.4 l-10.8 0 l0 -29 z M22.999999999999996 11 l5.8 0 l0 29 l-5.8 0 l0 -29 z M42.08 40 l-6.12 0 l0 -7.36 l-5.56 -21.64 l6 0 l2.6 13.68 l2.64 -13.68 l6 0 l-5.56 21.64 l0 7.36 z M51.99999999999999 36.4 l-0.52 3.6 l-5.84 0 l5.24 -29 l6.2 0 l5.24 29 l-5.84 0 l-0.52 -3.6 l-3.96 0 z M52.63999999999999 31.8 l2.68 0 l-1.32 -10.28 z M63.92 11 l5.52 0 l2.96 11.64 l0 -11.64 l5.96 0 l0 29 l-5.96 0 l-3.12 -12.12 l0 12.12 l-5.36 0 l0 -29 z M86.32000000000001 36.4 l-0.52 3.6 l-5.84 0 l5.24 -29 l6.2 0 l5.24 29 l-5.84 0 l-0.52 -3.6 l-3.96 0 z M86.96000000000001 31.8 l2.68 0 l-1.32 -10.28 z"></path></g><g id="SvgjsG3325" featurekey="nameFeature-1" transform="matrix(2.204585508254581,0,0,2.204585508254581,-2.6455021894141817,46.74956781902592)" fill="#ffffff"><path d="M1.2 11 l5.8 0 l0 29 l-5.8 0 l0 -29 z M19.479999999999997 11 l5.88 0 l-5.36 29 l-6.04 0 l-5.36 -29 l5.88 0 l0.52 3.72 l1.96 15 l2 -15.08 z M29.839999999999996 36.4 l-0.52 3.6 l-5.84 0 l5.24 -29 l6.2 0 l5.24 29 l-5.84 0 l-0.52 -3.6 l-3.96 0 z M30.479999999999997 31.8 l2.68 0 l-1.32 -10.28 z M41.760000000000005 11 l5.52 0 l2.96 11.64 l0 -11.64 l5.96 0 l0 29 l-5.96 0 l-3.12 -12.12 l0 12.12 l-5.36 0 l0 -29 z M64.96000000000001 16.08 c-0.34668 0 -0.52 0.18668 -0.52 0.56 l0 17.68 c0 0.21332 0.03332 0.36664 0.1 0.45996 s0.22 0.14 0.46 0.14 l2.2 0 c0.24 0 0.39332 -0.04668 0.46 -0.14 s0.1 -0.24664 0.1 -0.45996 l0 -17.68 c0 -0.37332 -0.17332 -0.56 -0.52 -0.56 l-2.28 0 z M73.64 35.88 c0 0.56 -0.06668 1.0867 -0.2 1.58 s-0.36 0.92664 -0.68 1.3 s-0.74668 0.67332 -1.28 0.9 s-1.2 0.34 -2 0.34 l-6.72 0 c-0.8 0 -1.4667 -0.11332 -2 -0.34 s-0.96 -0.52668 -1.28 -0.9 s-0.54668 -0.80664 -0.68 -1.3 s-0.2 -1.02 -0.2 -1.58 l0 -21.12 c0 -1.1467 0.31332 -2.06 0.94 -2.74 s1.62 -1.02 2.98 -1.02 l7.2 0 c1.36 0 2.3533 0.34 2.98 1.02 s0.94 1.5933 0.94 2.74 l0 21.12 z M86.04 11 l5.88 0 l-5.36 29 l-6.04 0 l-5.36 -29 l5.88 0 l0.52 3.72 l1.96 15 l2 -15.08 z"></path></g></svg>